/* XPM */
static char * C:\Users\Shazarot\Desktop\veil_master\share\pixmaps\bitcoin16_xpm[] = {
"16 16 74 1",
" 	c None",
".	c #03094A",
"+	c #030948",
"@	c #040846",
"#	c #040744",
"$	c #030741",
"%	c #04063F",
"&	c #030A4C",
"*	c #04094A",
"=	c #04063E",
"-	c #03063C",
";	c #03063A",
">	c #030638",
",	c #040536",
"'	c #030535",
")	c #030533",
"!	c #043E88",
"~	c #206FBB",
"{	c #1D3F6E",
"]	c #1D3E66",
"^	c #215992",
"/	c #05194A",
"(	c #030532",
"_	c #1167B2",
":	c #40C0E5",
"<	c #0D385F",
"[	c #0D3759",
"}	c #125592",
"|	c #030531",
"1	c #030530",
"2	c #04215E",
"3	c #19ADCD",
"4	c #16A5B5",
"5	c #16A5B4",
"6	c #18B1D6",
"7	c #041C4F",
"8	c #03052F",
"9	c #03052E",
"0	c #0460B0",
"a	c #0CB7E1",
"b	c #065369",
"c	c #065366",
"d	c #0DACC8",
"e	c #064483",
"f	c #03042D",
"g	c #041851",
"h	c #047ADE",
"i	c #0681D5",
"j	c #075196",
"k	c #0677C5",
"l	c #085AAC",
"m	c #030F3E",
"n	c #03042C",
"o	c #044A93",
"p	c #0475D5",
"q	c #0764BB",
"r	c #066AC3",
"s	c #0371CF",
"t	c #053D7E",
"u	c #04083B",
"v	c #045FB5",
"w	c #0466BE",
"x	c #047DE0",
"y	c #0367BF",
"z	c #030834",
"A	c #04306B",
"B	c #075FB2",
"C	c #037EE2",
"D	c #033B7A",
"E	c #03042B",
"F	c #05458C",
"G	c #0462B8",
"H	c #041A4A",
"I	c #04275C",
"     .+@#$%     ",
"   &*+@#$%=-;   ",
"  &*+@#$%=-;>,  ",
" &*+@#$%=-;>,') ",
" *!~{$%=-;>]^/( ",
".+@_:<=-;>[:}(|1",
"+@#234-;>,567|89",
"@#$%0ab>,cde|89f",
"#$%=ghijjklm89fn",
"$%=-;opqrst89fnn",
"%=-;>uvwxyz9fnnn",
" -;>,'ABCD9fnnE ",
" ;>,'))FG8fnnEE ",
"  ,')(|HIfnnEE  ",
"   )(|89fnnEE   ",
"     19fnnn     "};
