/* XPM */
static char * C:\Users\Shazarot\Desktop\veil_master\share\pixmaps\bitcoin64_xpm[] = {
"64 64 230 2",
"  	c None",
". 	c #0B4B95",
"+ 	c #004E9E",
"@ 	c #004F9F",
"# 	c #0E4C96",
"$ 	c #0050A0",
"% 	c #104D97",
"& 	c #0251A1",
"* 	c #124E98",
"= 	c #0552A2",
"- 	c #0853A3",
"; 	c #17509B",
"> 	c #0C54A4",
", 	c #18519C",
"' 	c #0059A8",
") 	c #0F55A5",
"! 	c #005AA9",
"~ 	c #015AB0",
"{ 	c #1156A6",
"] 	c #005BAA",
"^ 	c #005BB0",
"/ 	c #1456A7",
"( 	c #005CAB",
"_ 	c #005CB1",
": 	c #1657A8",
"< 	c #035DAD",
"[ 	c #095BB2",
"} 	c #005EB3",
"| 	c #1858A9",
"1 	c #005FB4",
"2 	c #0C5CB3",
"3 	c #0060B5",
"4 	c #1A59AA",
"5 	c #0061B6",
"6 	c #0062B7",
"7 	c #0063B8",
"8 	c #135EB5",
"9 	c #0064BA",
"0 	c #0065B4",
"a 	c #0065BB",
"b 	c #155FB6",
"c 	c #0065C0",
"d 	c #0365BC",
"e 	c #0066C1",
"f 	c #1860B7",
"g 	c #0067C2",
"h 	c #0766BD",
"i 	c #0068C3",
"j 	c #0069C5",
"k 	c #006AC6",
"l 	c #006BC7",
"m 	c #006BC8",
"n 	c #006CC9",
"o 	c #006EBD",
"p 	c #006DCA",
"q 	c #026ECB",
"r 	c #0070BF",
"s 	c #126CBD",
"t 	c #076FCC",
"u 	c #0071D3",
"v 	c #0B70CD",
"w 	c #0073D5",
"x 	c #0073D6",
"y 	c #0074D7",
"z 	c #0F71CE",
"A 	c #0075D9",
"B 	c #0076DA",
"C 	c #0079BB",
"D 	c #1372D0",
"E 	c #0177DB",
"F 	c #007BBD",
"G 	c #0679C2",
"H 	c #0678DC",
"I 	c #007CC4",
"J 	c #007ADC",
"K 	c #027BD7",
"L 	c #0B79DD",
"M 	c #007EDA",
"N 	c #007DE6",
"O 	c #007EE7",
"P 	c #107ADE",
"Q 	c #007FE8",
"R 	c #137BDF",
"S 	c #0080EA",
"T 	c #0081E4",
"U 	c #0081EB",
"V 	c #0085C0",
"W 	c #0084CD",
"X 	c #0082E5",
"Y 	c #177CE0",
"Z 	c #0086C8",
"` 	c #0084E0",
" .	c #0582EC",
"..	c #0085E1",
"+.	c #0089C4",
"@.	c #1882C5",
"#.	c #0088D7",
"$.	c #0B83ED",
"%.	c #0089D0",
"&.	c #008AC5",
"*.	c #1A81DE",
"=.	c #0088F1",
"-.	c #0D87D0",
";.	c #1084EE",
">.	c #0089F3",
",.	c #008AF4",
"'.	c #1686D6",
").	c #1485EF",
"!.	c #1F83E0",
"~.	c #1589BF",
"{.	c #008BF5",
"].	c #008CF6",
"^.	c #008CFC",
"/.	c #1886F0",
"(.	c #008EF1",
"_.	c #028FDE",
":.	c #178AD4",
"<.	c #0093C1",
"[.	c #0091D9",
"}.	c #008EFE",
"|.	c #1B87F1",
"1.	c #0092D3",
"2.	c #0094C2",
"3.	c #0B8CFD",
"4.	c #0095C3",
"5.	c #0090FF",
"6.	c #1E88F3",
"7.	c #0096C4",
"8.	c #178ED1",
"9.	c #108DFE",
"0.	c #2089F4",
"a.	c #0691F5",
"b.	c #0094E9",
"c.	c #158EFF",
"d.	c #1595F8",
"e.	c #1097F3",
"f.	c #039CEB",
"g.	c #2A90F5",
"h.	c #00A2C8",
"i.	c #2494EB",
"j.	c #11A0C8",
"k.	c #05A4C5",
"l.	c #00A2F0",
"m.	c #00A8C8",
"n.	c #00A7E1",
"o.	c #3398F7",
"p.	c #08ABE6",
"q.	c #11A8E9",
"r.	c #0EACE7",
"s.	c #00B2DE",
"t.	c #00B4CD",
"u.	c #16AEC9",
"v.	c #3C9EFD",
"w.	c #25A6F5",
"x.	c #1AACDA",
"y.	c #00B7D0",
"z.	c #00B5E8",
"A.	c #00BACC",
"B.	c #07B6E3",
"C.	c #4BA0FA",
"D.	c #13B3E7",
"E.	c #00BCDA",
"F.	c #0ABAD3",
"G.	c #00BED0",
"H.	c #2DAFE4",
"I.	c #3CAAF4",
"J.	c #00C4CF",
"K.	c #39B1EE",
"L.	c #00C6DE",
"M.	c #2BB7F2",
"N.	c #04C7D2",
"O.	c #42B2F6",
"P.	c #00C9D9",
"Q.	c #00CADB",
"R.	c #08CAE2",
"S.	c #0ECBE3",
"T.	c #00D1DB",
"U.	c #51B6F5",
"V.	c #05D0E1",
"W.	c #00D3D5",
"X.	c #0AD0D4",
"Y.	c #00D3DC",
"Z.	c #00D4DD",
"`.	c #17CDE5",
" +	c #00D6D2",
".+	c #00D5DF",
"++	c #00D6E0",
"@+	c #00D5EC",
"#+	c #00D7DA",
"$+	c #02D7D4",
"%+	c #33C6F4",
"&+	c #00DADD",
"*+	c #09D8D5",
"=+	c #2FCAF0",
"-+	c #07D8E2",
";+	c #29CDEC",
">+	c #00DBDE",
",+	c #59BDFB",
"'+	c #46C5F4",
")+	c #0FD9D6",
"!+	c #00DDDF",
"~+	c #00DCEB",
"{+	c #0DD9E3",
"]+	c #5BBFFE",
"^+	c #00DEE0",
"/+	c #2DCFEE",
"(+	c #26D3EB",
"_+	c #00E0E8",
":+	c #4BC8F7",
"<+	c #31D1F1",
"[+	c #38CFF6",
"}+	c #07E0E2",
"|+	c #65C1FA",
"1+	c #17DBE5",
"2+	c #24D8DC",
"3+	c #69C0FF",
"4+	c #2BD5ED",
"5+	c #23D8E9",
"6+	c #47CCF3",
"7+	c #5CC5FC",
"8+	c #66C2FB",
"9+	c #58C7F7",
"0+	c #73BEFF",
"a+	c #33D3F2",
"b+	c #4ECAFA",
"c+	c #70C0FB",
"d+	c #2DD6EE",
"e+	c #25D9EA",
"f+	c #5AC8F8",
"g+	c #FCFFFB",
"                                                                                                                                ",
"                                                                                                                                ",
"                5.5.5.5.                                                                                5.5.5.                  ",
"                  3.3.3.3.,+                                                                        g.3.3.3.3.                  ",
"                  /./././.C.3+                                                                  8+3+g./././.                    ",
"                    ).).).v.f+f+9+                                                            9+f+,+).).).).                    ",
"                      ).).d.9+9+9+b+                                                        9+9+9+O.).).).                      ",
"                      S S S '+6+6+6+6+                                                    6+6+6+6+w.S S                         ",
"                        O O M.[+[+[+[+                                                  <+[+[+[+<+ .O O                         ",
"                        L P $.<+d+d+d+d+                                              d+d+d+d+d+M.P P                           ",
"                          P P M.4+4+4+4+e+                                            4+4+4+4+(+_.P P                           ",
"                          L L ` 5+5+5+5+5+                                          1+5+5+5+5+D.L L                             ",
"                            w w p.{+{+{+{+}+                                        {+{+{+{+{+K w w                             ",
"                              w w L.}+}+}+}+                                      }+}+}+}+!+[.w w                               ",
"                              E w v P.^+^+^+^+                                    ^+^+^+!+1.u n                                 ",
"                                5.=.P P.^+^+^+                                  !+^+^+>+j.7 ) .                                 ",
"                                ].].].=.B.>+!+>+                                >+!+Y.V ) - #                                   ",
"                                  ,.,.,.,.l.Y.#+$+                            $+#+F.o ^ > - $                                   ",
"                                  ;.;.;.;.;.;.p.W. +                         +G.-.6 3 ^ > -                                     ",
"                                    ;.;.;.;.;.;.L <.A.N.              W.G.m.F l i 6 3 ^ >                                       ",
"                                      Q Q Q Q Q Q H 6 6 C F C F C r V a 6 a q n i 6 3 ^ >                                       ",
"                                      O O O O O O O u 3 3 3 3 3 3 3 3 3 9 u u n i 6 3 ^                                         ",
"                                        Y Y Y Y Y Y Y m [ [ [ [ [ [ [ 1 H w u n i 6 3 _                                         ",
"                                        L L L L L L L L 8 : : : : : : z L w u n i 6 3                                           ",
"                                          H H H H H H H u { { { { { h Y L w u n i 6 5                                           ",
"                                            w w w w w w w h / / / : N Y L w u n i 6                                             ",
"                                            w w w w w w w u - > > v Q Y L w u n i                                               ",
"                                              t t t t t t t 2 & = ;.Q Y L w u n i                                               ",
"                                              p p p p p p p j % s /.Q Y L w u n                                                 ",
"                                                j j j j j j j { Y /.Q Y L w u p                                                 ",
"                                                i i i i i i i 9 /./.Q Y L w u                                                   ",
"                                                  7 7 7 7 7 7 j 9./.Q Y L w w                                                   ",
"                                                    6 6 6 6 6 6 )./.Q Y L w                                                     ",
"                                                    5 5 5 5 5 5 Y /.Q Y L                                                       ",
"                                                      } } } } } R /.Q Y L                                                       ",
"                                                      [ { { { { D /.Q Y                                                         ",
"                                                        / | | | D /.Q Y                                                         ",
"                                                        { { { { D /.S                                                           ",
"                                                          - - - D /. .                                                          ",
"                                                            & & D /.                                                            ",
"                                                            = # R                                                               ",
"                                                              . ).                                                              ",
"                                                              !                                                                 ",
"                                                                                      g+g+      g+g+                            ",
"                                                                                    g+g+g+g+  g+g+g+                            ",
"                                                                                    g+g+g+    g+g+g+                            ",
"                                                                                      g+      g+g+g+                            ",
"                          g+g+g+                    g+g+                              g+g+    g+g+g+                            ",
"                          g+g+g+g+                g+g+g+g+    g+g+g+g+g+g+          g+g+g+g+  g+g+g+                            ",
"                            g+g+g+g+            g+g+g+g+    g+g+g+g+g+g+g+g+g+      g+g+g+g+  g+g+g+                            ",
"                            g+g+g+g+            g+g+g+g+  g+g+g+g+g+g+g+g+g+g+g+    g+g+g+g+  g+g+g+                            ",
"                              g+g+g+g+        g+g+g+g+  g+g+g+g+        g+g+g+g+    g+g+g+g+  g+g+g+                            ",
"                                g+g+g+g+    g+g+g+g+    g+g+g+g+          g+g+g+g+  g+g+g+g+  g+g+g+                            ",
"                                g+g+g+g+    g+g+g+g+  g+g+g+g+g+g+g+g+g+g+g+g+g+g+  g+g+g+g+  g+g+g+                            ",
"                                  g+g+g+g+g+g+g+g+    g+g+g+g+g+g+g+g+g+g+g+g+g+g+  g+g+g+g+  g+g+g+                            ",
"                                  g+g+g+g+g+g+g+g+    g+g+g+g+g+g+g+g+g+g+g+g+g+g+  g+g+g+g+  g+g+g+g+                          ",
"                                    g+g+g+g+g+g+        g+g+g+g+                    g+g+g+g+  g+g+g+g+                          ",
"                                    g+g+g+g+g+g+        g+g+g+g+                    g+g+g+g+  g+g+g+g+                          ",
"                                      g+g+g+g+            g+g+g+g+g+g+g+g+g+        g+g+g+g+  g+g+g+g+                          ",
"                                        g+g+                g+g+g+g+g+g+g+g+g+      g+g+g+g+  g+g+g+g+                          ",
"                                        g+g+                  g+g+g+g+g+g+g+g+        g+g+g+    g+g+g+                          ",
"                                                                g+g+g+g+g+              g+        g+                            ",
"                                                                                                                                ",
"                                                                                                                                "};
