/* XPM */
static char * C:\Users\Shazarot\Desktop\veil_master\share\pixmaps\bitcoin32_xpm[] = {
"32 32 182 2",
"  	c None",
". 	c #030949",
"+ 	c #030948",
"@ 	c #030947",
"# 	c #040846",
"$ 	c #040745",
"% 	c #040744",
"& 	c #030742",
"* 	c #030741",
"= 	c #040A4B",
"- 	c #04094A",
"; 	c #040640",
"> 	c #04063F",
", 	c #04063E",
"' 	c #030A4C",
") 	c #04063D",
"! 	c #03063C",
"~ 	c #03063B",
"{ 	c #03063A",
"] 	c #030639",
"^ 	c #030638",
"/ 	c #040537",
"( 	c #040536",
"_ 	c #040535",
": 	c #030535",
"< 	c #030534",
"[ 	c #030533",
"} 	c #030D4F",
"| 	c #046ED0",
"1 	c #0552A7",
"2 	c #0E2668",
"3 	c #0D1F54",
"4 	c #072F6D",
"5 	c #082D67",
"6 	c #030635",
"7 	c #030532",
"8 	c #04327E",
"9 	c #0577D8",
"0 	c #409EE5",
"a 	c #3C79B1",
"b 	c #050B46",
"c 	c #06093A",
"d 	c #3C78AC",
"e 	c #4093D4",
"f 	c #09468B",
"g 	c #05174B",
"h 	c #030531",
"i 	c #055CB4",
"j 	c #248DD6",
"k 	c #51CAF5",
"l 	c #368FBD",
"m 	c #040943",
"n 	c #050839",
"o 	c #378FBB",
"p 	c #237FBF",
"q 	c #073878",
"r 	c #030530",
"s 	c #041C5F",
"t 	c #096DC2",
"u 	c #39CDED",
"v 	c #3BD2EF",
"w 	c #1D6C96",
"x 	c #1D6B92",
"y 	c #0B5BA7",
"z 	c #041346",
"A 	c #03052F",
"B 	c #04418D",
"C 	c #199CCC",
"D 	c #27D9E9",
"E 	c #26D0E2",
"F 	c #06184C",
"G 	c #061745",
"H 	c #25D0E2",
"I 	c #189FD2",
"J 	c #06387B",
"K 	c #03052E",
"L 	c #04104D",
"M 	c #0858A4",
"N 	c #14C4D5",
"O 	c #16DFE4",
"P 	c #0B6787",
"Q 	c #0A6783",
"R 	c #12CAE0",
"S 	c #0566B9",
"T 	c #040E3F",
"U 	c #044392",
"V 	c #087FD5",
"W 	c #11CEE0",
"X 	c #11C4CC",
"Y 	c #041143",
"Z 	c #03103D",
"` 	c #0FC4CB",
" .	c #10C8D8",
"..	c #086AB5",
"+.	c #052966",
"@.	c #03042D",
"#.	c #040B44",
"$.	c #027ADE",
"%.	c #038DF2",
"&.	c #09B6E3",
"*.	c #0D9DAC",
"=.	c #041141",
"-.	c #04103D",
";.	c #0D9CAA",
">.	c #0CAACC",
",.	c #0960AC",
"'.	c #084790",
").	c #030735",
"!.	c #04327A",
"~.	c #0483EB",
"{.	c #068AE2",
"].	c #0B88B8",
"^.	c #094E7D",
"/.	c #072B5C",
"(.	c #074D7C",
"_.	c #0B87B7",
":.	c #0579C7",
"<.	c #0862B9",
"[.	c #0959AA",
"}.	c #042058",
"|.	c #03042C",
"1.	c #0463BD",
"2.	c #037DE2",
"3.	c #0475D6",
"4.	c #0760B4",
"5.	c #075FB3",
"6.	c #066FCD",
"7.	c #026CC7",
"8.	c #084791",
"9.	c #03205D",
"0.	c #0377D8",
"a.	c #0378D9",
"b.	c #066AC3",
"c.	c #085AAB",
"d.	c #076DC8",
"e.	c #0476D6",
"f.	c #0861B8",
"g.	c #04184D",
"h.	c #064C9B",
"i.	c #0672D1",
"j.	c #0771D0",
"k.	c #0759A9",
"l.	c #065CAE",
"m.	c #027EE3",
"n.	c #06428A",
"o.	c #041147",
"p.	c #0268C2",
"q.	c #016CC8",
"r.	c #0461B5",
"s.	c #0570CD",
"t.	c #027FE4",
"u.	c #0268C1",
"v.	c #031040",
"w.	c #05377D",
"x.	c #0666BF",
"y.	c #0664BB",
"z.	c #0683EA",
"A.	c #033B7F",
"B.	c #03042B",
"C.	c #03093A",
"D.	c #0758A9",
"E.	c #0861B6",
"F.	c #0480E7",
"G.	c #036AC5",
"H.	c #030936",
"I.	c #042561",
"J.	c #075CAE",
"K.	c #0578DA",
"L.	c #032F6F",
"M.	c #05458E",
"N.	c #0656A5",
"O.	c #0572D1",
"P.	c #0267C1",
"Q.	c #030630",
"R.	c #04174B",
"S.	c #06509C",
"T.	c #0572D0",
"U.	c #03235B",
"V.	c #063373",
"W.	c #064D9A",
"X.	c #040E3B",
"Y.	c #031140",
"                        . + @ # $ % & *                         ",
"                  = - . + @ # $ % & * ; > > ,                   ",
"              ' = - . + @ # $ % & * ; > > , ) ! ~               ",
"            ' = - . + @ # $ % & * ; > > , ) ! ~ { ]             ",
"          ' = - . + @ # $ % & * ; > > , ) ! ~ { ] ^ /           ",
"        ' = - . + @ # $ % & * ; > > , ) ! ~ { ] ^ / ( _         ",
"      ' = - . + @ # $ % & * ; > > , ) ! ~ { ] ^ / ( _ : <       ",
"    ' = - . + @ # $ % & * ; > > , ) ! ~ { ] ^ / ( _ : < [ [     ",
"    = - } | 1 2 $ % & * ; > > , ) ! ~ { ] ^ / ( 3 4 5 6 [ 7     ",
"  = - . + 8 9 0 a b * ; > > , ) ! ~ { ] ^ / c d e f g [ 7 7 h   ",
"  - . + @ # i j k l m > > , ) ! ~ { ] ^ / n o k p q [ 7 7 h r   ",
"  . + @ # $ s t u v w > , ) ! ~ { ] ^ / ( x v u y z 7 7 h r A   ",
". + @ # $ % & B C D E F ) ! ~ { ] ^ / ( G H D I J 7 7 h r A A K ",
"+ @ # $ % & * L M N O P ! ~ { ] ^ / ( _ Q O R S T 7 h r A A K K ",
"@ # $ % & * ; > U V W X Y { ] ^ / ( _ Z `  ...+.7 h r A A K K @.",
"# $ % & * ; > > #.$.%.&.*.=.^ / ( _ -.;.>.,.'.).h r A A K K @.@.",
"$ % & * ; > > , ) !.~.~.{.].^././.(._.:.<.[.}.h r A A K K @.@.|.",
"% & * ; > > , ) ! ~ 1.2.2.3.4.5.5.4.6.7.<.8.7 r A A K K @.@.|.|.",
"& * ; > > , ) ! ~ { 9.0.a.a.b.c.c.d.e.7.f.g.r A A K K @.@.|.|.|.",
"* ; > > , ) ! ~ { ] ^ h.i.i.j.k.l.m.e.7.n.r A A K K @.@.|.|.|.|.",
"  > > , ) ! ~ { ] ^ / o.p.q.q.r.s.t.e.u.v.A A K K @.@.|.|.|.|.  ",
"  > , ) ! ~ { ] ^ / ( _ w.x.x.y.z.t.e.A.A A K K @.@.|.|.|.|.B.  ",
"  , ) ! ~ { ] ^ / ( _ : C.D.E.E.F.t.G.H.A K K @.@.|.|.|.|.B.B.  ",
"    ! ~ { ] ^ / ( _ : < [ I.J.J.K.t.L.A K K @.@.|.|.|.|.B.B.    ",
"    ~ { ] ^ / ( _ : < [ [ [ M.N.O.P.Q.K K @.@.|.|.|.|.B.B.B.    ",
"      ] ^ / ( _ : < [ [ 7 7 R.S.T.U.K K @.@.|.|.|.|.B.B.B.      ",
"        / ( _ : < [ [ 7 7 h r V.W.K K @.@.|.|.|.|.B.B.B.        ",
"          _ : < [ [ 7 7 h r A X.Y.K @.@.|.|.|.|.B.B.B.          ",
"            < [ [ 7 7 h r A A K K @.@.|.|.|.|.B.B.B.            ",
"              [ 7 7 h r A A K K @.@.|.|.|.|.B.B.B.              ",
"                  h r A A K K @.@.|.|.|.|.B.B.                  ",
"                        K K @.@.|.|.|.|.                        "};
