<?xml version="1.0" encoding="utf-8"?>
<!-- Generator: Adobe Illustrator 17.0.0, SVG Export Plug-In . SVG Version: 6.00 Build 0)  -->
<!DOCTYPE svg PUBLIC "-//W3C//DTD SVG 1.1//EN" "http://www.w3.org/Graphics/SVG/1.1/DTD/svg11.dtd">
<svg version="1.1" id="Capa_2" xmlns="http://www.w3.org/2000/svg" xmlns:xlink="http://www.w3.org/1999/xlink" x="0px" y="0px"
	 width="36px" height="36px" viewBox="0 0 36 36" enable-background="new 0 0 36 36" xml:space="preserve">
<linearGradient id="SVGID_1_" gradientUnits="userSpaceOnUse" x1="6.6863" y1="6.6863" x2="29.3137" y2="29.3137">
	<stop  offset="0" style="stop-color:#0D124D"/>
	<stop  offset="0.1888" style="stop-color:#0C1044"/>
	<stop  offset="0.6482" style="stop-color:#090C34"/>
	<stop  offset="1" style="stop-color:#080B2E"/>
</linearGradient>
<circle fill="url(#SVGID_1_)" cx="18" cy="18" r="16"/>
<g>
	<linearGradient id="SVGID_2_" gradientUnits="userSpaceOnUse" x1="18.001" y1="18.5445" x2="18.001" y2="10.4894">
		<stop  offset="0" style="stop-color:#12D5D3"/>
		<stop  offset="0.5" style="stop-color:#2CD7EB"/>
		<stop  offset="1" style="stop-color:#72BEFE"/>
	</linearGradient>
	<path fill="url(#SVGID_2_)" d="M22.649,15.131c-1.49,4.535-7.808,4.535-9.298,0c-0.665-2.023-2.096-3.693-3.978-4.64
		c0.22,2.673,1.631,5.098,3.831,6.582c0.085,0.054,0.171,0.109,0.255,0.165c2.782,1.741,6.293,1.742,9.076,0.003
		c0.083-0.052,0.165-0.102,0.247-0.16c1.041-0.697,1.919-1.616,2.575-2.693c0.722-1.179,1.158-2.515,1.272-3.899
		C24.746,11.436,23.314,13.107,22.649,15.131"/>
	<linearGradient id="SVGID_3_" gradientUnits="userSpaceOnUse" x1="17.9979" y1="23.641" x2="17.9979" y2="17.238">
		<stop  offset="0" style="stop-color:#074A93"/>
		<stop  offset="1" style="stop-color:#3890C8"/>
	</linearGradient>
	<path fill="url(#SVGID_3_)" d="M18,23.641c0.687-2.626,2.301-4.904,4.535-6.4c-2.783,1.738-6.292,1.737-9.073-0.003
		C15.697,18.733,17.313,21.013,18,23.641"/>
	<linearGradient id="SVGID_4_" gradientUnits="userSpaceOnUse" x1="10.044" y1="17.0729" x2="10.044" y2="9.7222">
		<stop  offset="0" style="stop-color:#074A93"/>
		<stop  offset="1" style="stop-color:#008CF9"/>
	</linearGradient>
	<path fill="url(#SVGID_4_)" d="M10.347,15.814c1.007,0.278,1.969,0.702,2.857,1.258c-2.2-1.484-3.612-3.909-3.831-6.582
		C8.591,10.096,7.75,9.836,6.884,9.722C8.037,11.753,9.192,13.784,10.347,15.814"/>
	<linearGradient id="SVGID_5_" gradientUnits="userSpaceOnUse" x1="25.9483" y1="17.0811" x2="25.9483" y2="9.7222">
		<stop  offset="0" style="stop-color:#008CF9"/>
		<stop  offset="1" style="stop-color:#074A93"/>
	</linearGradient>
	<path fill="url(#SVGID_5_)" d="M26.629,10.489c-0.114,1.384-0.551,2.72-1.273,3.899c-0.656,1.077-1.535,1.996-2.575,2.693
		c0.893-0.561,1.86-0.988,2.873-1.267l3.462-6.092C28.251,9.837,27.411,10.096,26.629,10.489"/>
	<linearGradient id="SVGID_6_" gradientUnits="userSpaceOnUse" x1="16.607" y1="28.4736" x2="24.3503" y2="15.0618">
		<stop  offset="0" style="stop-color:#0099FF"/>
		<stop  offset="0.2" style="stop-color:#0094FD"/>
		<stop  offset="0.35" style="stop-color:#008CF9"/>
		<stop  offset="0.4888" style="stop-color:#0181E8"/>
		<stop  offset="0.7605" style="stop-color:#0466BE"/>
		<stop  offset="1" style="stop-color:#074A93"/>
	</linearGradient>
	<path fill="url(#SVGID_6_)" d="M25.653,15.816l0.001-0.001c-0.002,0.001-0.004,0.002-0.006,0.003
		c-1.011,0.279-1.977,0.704-2.867,1.264c-0.081,0.054-0.164,0.107-0.246,0.159c-2.234,1.496-3.848,3.774-4.535,6.4
		c0.114,0.436,0.201,0.878,0.262,1.325c0,0,0,0,0,0c0.194,1.441,0.105,2.907-0.262,4.312L25.653,15.816
		C25.653,15.816,25.654,15.816,25.653,15.816C25.654,15.816,25.653,15.816,25.653,15.816z"/>
	<linearGradient id="SVGID_7_" gradientUnits="userSpaceOnUse" x1="10.0067" y1="16.0981" x2="19.799" y2="27.7681">
		<stop  offset="0" style="stop-color:#0099FF"/>
		<stop  offset="0.2" style="stop-color:#0094FD"/>
		<stop  offset="0.35" style="stop-color:#008CF9"/>
		<stop  offset="0.4888" style="stop-color:#0181E8"/>
		<stop  offset="0.7605" style="stop-color:#0466BE"/>
		<stop  offset="1" style="stop-color:#074A93"/>
	</linearGradient>
	<path fill="url(#SVGID_7_)" d="M18.362,26.656c0.003-0.192-0.001-0.376-0.008-0.556c-0.002-0.05-0.005-0.1-0.008-0.15
		c-0.016-0.326-0.085-0.978-0.086-0.974l0,0c0.001-0.004,0.001-0.008,0.002-0.013c-0.003-0.018-0.148-0.749-0.148-0.749
		c-0.039-0.192-0.064-0.386-0.114-0.576c0,0.001,0,0.001,0,0.002c-0.687-2.629-2.302-4.908-4.538-6.404l-0.027-0.016
		c-0.077-0.049-0.153-0.102-0.228-0.149c-0.878-0.55-1.83-0.968-2.825-1.246c-0.012-0.004-0.023-0.01-0.034-0.014l0.001,0.002
		c0,0-0.001,0-0.001,0c0,0,0.001,0,0.001,0.001L18,29.278c0.223-0.855,0.33-1.733,0.347-2.613
		C18.352,26.661,18.357,26.66,18.362,26.656z"/>
</g>
</svg>
