<?xml version="1.0" encoding="UTF-8"?>
<svg width="24px" height="24px" viewBox="0 0 24 24" version="1.1" xmlns="http://www.w3.org/2000/svg" xmlns:xlink="http://www.w3.org/1999/xlink">
    <!-- Generator: Sketch 52.4 (67378) - http://www.bohemiancoding.com/sketch -->
    <title>ic-addresses</title>
    <desc>Created with Sketch.</desc>
    <g id="Page-1" stroke="none" stroke-width="1" fill="none" fill-rule="evenodd">
        <g id="ic-addresses" transform="translate(-1.000000, -1.000000)">
            <polygon id="Rectangle_3748" fill="#080B2E" opacity="0" points="0 0 24 0 24 24 0 24"></polygon>
            <g id="Group" transform="translate(0.000000, 1.000000)" fill="#FFFFFF">
                <path d="M12,10.5 C13.9233032,10.4767959 15.4767959,8.92330318 15.5,7 C15.5,5.06700338 13.9329966,3.5 12,3.5 C10.0670034,3.5 8.5,5.06700338 8.5,7 C8.5232041,8.92330318 10.0766968,10.4767959 12,10.5 Z M12,5 C13.1045695,5 14,5.8954305 14,7 C14,8.1045695 13.1045695,9 12,9 C10.8954305,9 10,8.1045695 10,7 C10.0032948,5.89679813 10.8967981,5.0032948 12,5 Z" id="Path_18568" fill-rule="nonzero"></path>
                <path d="M7,18.9 C7.21307632,18.9029919 7.41830246,18.8196676 7.56898502,18.668985 C7.71966759,18.5183025 7.80299194,18.3130763 7.8,18.1 C7.69108359,15.5048246 9.7049534,13.3119441 12.3,13.2 C14.8950466,13.3119441 16.9089164,15.5048246 16.8,18.1 C16.7970081,18.3130763 16.8803324,18.5183025 17.031015,18.668985 C17.1816975,18.8196676 17.3869237,18.9029919 17.6,18.9 C17.8176708,18.9199162 18.0329327,18.8420516 18.1874922,18.6874922 C18.3420516,18.5329327 18.4199162,18.3176708 18.4,18.1 C18.4895686,14.6837438 15.8149264,11.8307922 12.4,11.7 C10.7532942,11.746107 9.1932253,12.4480718 8.06653415,13.6498758 C6.93984296,14.8516797 6.33988252,16.4537462 6.4,18.1 C6.2,18.5 6.6,18.9 7,18.9 Z" id="Path_18569"></path>
                <path d="M19.5,0.2 L4.6,0.2 C4.17401301,0.19457275 3.7638858,0.36140034 3.46264307,0.66264307 C3.16140034,0.9638858 2.99457275,1.37401301 3,1.8 L3,3 L1.8,3 C1.58232917,2.9800838 1.36706729,3.0579484 1.21250784,3.21250784 C1.0579484,3.36706729 0.9800838,3.58232917 1,3.8 L1,4.6 L3,4.6 L3,10.4 L1.8,10.4 C1.3,10.2 1,10.6 1,11 C0.99700806,11.2130763 1.08033241,11.4183025 1.23101498,11.568985 C1.38169754,11.7196676 1.58692368,11.8029919 1.8,11.8 L3,11.8 L3,17.6 L1,17.6 L1,18.4 C1,18.7 1.3,19 1.8,19 L3,19 L3,20.2 C2.9925974,20.6000482 3.14825439,20.9858952 3.43117959,21.2688204 C3.71410479,21.5517456 4.09995183,21.7074026 4.5,21.7 L19.4,21.7 C19.8000482,21.7074026 20.1858952,21.5517456 20.4688204,21.2688204 C20.7517456,20.9858952 20.9074026,20.6000482 20.9,20.2 L20.9,1.8 C20.9502054,1.39704701 20.825993,0.99182717 20.558595,0.68622942 C20.2911969,0.38063167 19.9060515,0.20372826 19.5,0.2 Z M19.5,20.2 L4.5,20.2 L4.5,1.7 L19.4,1.7 L19.4,20.2 L19.5,20.2 Z" id="Path_18570" fill-rule="nonzero"></path>
            </g>
        </g>
    </g>
</svg>