<svg xmlns="http://www.w3.org/2000/svg" viewBox="0 0 23.89 24">
    <defs>
        <style type="text/css">
            .cls-1{fill:#004377}
        </style>
    </defs>
    <g id="ic_copy" transform="translate(-1659 -1158)">
        <path id="Path_16056" d="M21.624 0H10.337A2.383 2.383 0 0 0 7.96 2.376V5.7H2.376A2.383 2.383 0 0 0 0 8.079v13.545A2.383 2.383 0 0 0 2.376 24h11.169a2.383 2.383 0 0 0 2.376-2.376V18.3H21.5a2.383 2.383 0 0 0 2.376-2.376V2.376A2.214 2.214 0 0 0 21.624 0zm-7.6 21.624a.511.511 0 0 1-.475.475H2.376a.511.511 0 0 1-.475-.475V8.079a.511.511 0 0 1 .475-.479h11.169a.511.511 0 0 1 .475.475v13.549zm8.079-5.7a.511.511 0 0 1-.475.475H16.04v-8.32A2.383 2.383 0 0 0 13.663 5.7h-3.8V2.376a.511.511 0 0 1 .475-.475H21.5a.511.511 0 0 1 .475.475v13.545z" class="cls-1" data-name="Path 16056" transform="translate(1659 1158)"/>
    </g>
</svg>
