<?xml version="1.0" encoding="UTF-8"?>
<svg width="28px" height="23px" viewBox="0 0 28 23" version="1.1" xmlns="http://www.w3.org/2000/svg" xmlns:xlink="http://www.w3.org/1999/xlink">
    <!-- Generator: Sketch 52.4 (67378) - http://www.bohemiancoding.com/sketch -->
    <title>ic-folder</title>
    <desc>Created with Sketch.</desc>
    <g id="Page-1" stroke="none" stroke-width="1" fill="none" fill-rule="evenodd">
        <g id="ic-folder" transform="translate(-1.000000, -4.000000)">
            <path d="M26.6,7 L14.7,7 L12.1,4.3 C11.9219047,4.10225055 11.6660222,3.99258663 11.4,4 L3.4,4 C2.0482162,4.03060707 0.97542971,5.148093 1,6.5 L1,23.8 C0.97542971,25.151907 2.0482162,26.2693929 3.4,26.3 L26.5,26.3 C27.8517838,26.2693929 28.9245703,25.151907 28.9,23.8 L28.9,9.5 C28.9515325,8.85725285 28.7326577,8.2221371 28.2960851,7.74760167 C27.8595125,7.27306624 27.2448062,7.00211552 26.6,7 Z M3.4,6 L11,6 L12,7 L3,7 L3,6.5 C2.97532533,6.25233269 3.15295697,6.03029314 3.4,6 Z M27,23.8 C27.0246747,24.0476673 26.847043,24.2697069 26.6,24.3 L3.4,24.3 C3.15295697,24.2697069 2.97532533,24.0476673 3,23.8 L3,9 L26.6,9 C26.847043,9.03029314 27.0246747,9.25233269 27,9.5 L27,23.8 Z" id="Path_18423" fill="#707070" fill-rule="nonzero"></path>
            <polygon id="Rectangle_3659" points="0 0 30 0 30 30 0 30"></polygon>
        </g>
    </g>
</svg>