<?xml version="1.0" encoding="UTF-8"?>
<svg width="18px" height="18px" viewBox="0 0 18 18" version="1.1" xmlns="http://www.w3.org/2000/svg" xmlns:xlink="http://www.w3.org/1999/xlink">
    <!-- Generator: Sketch 52.2 (67145) - http://www.bohemiancoding.com/sketch -->
    <title>ic-information</title>
    <desc>Created with Sketch.</desc>
    <g id="Page-1" stroke="none" stroke-width="1" fill="none" fill-rule="evenodd">
        <g id="ic-information" transform="translate(-1.000000, -1.000000)">
            <g id="Group_8432">
                <g id="Group_8430" transform="translate(1.000000, 1.000000)" fill="#105AEF" fill-rule="nonzero">
                    <path d="M9,17.8 C4.1398942,17.8 0.2,13.8601058 0.2,9 C0.2,4.1398942 4.1398942,0.2 9,0.2 C13.8601058,0.2 17.8,4.1398942 17.8,9 C17.7928405,13.8571372 13.8571372,17.7928405 9,17.8 Z M9,1.8 C5.0235498,1.8 1.8,5.0235498 1.8,9 C1.8,12.9764502 5.0235498,16.2 9,16.2 C12.9764502,16.2 16.2,12.9764502 16.2,9 C16.2080169,7.08799487 15.4520223,5.25198503 14.1000186,3.89998135 C12.748015,2.54797767 10.9120051,1.7919831 9,1.8 Z" id="Path_18573"></path>
                </g>
                <g id="Group_8431">
                    <polygon id="Rectangle_3751" points="0 0 20 0 20 20 0 20"></polygon>
                </g>
            </g>
            <g id="Group_8433" transform="translate(6.000000, 4.000000)" fill="#105AEF">
                <path d="M3.2,10.5 C3.19700806,10.7130763 3.28033241,10.9183025 3.43101498,11.068985 C3.58169754,11.2196676 3.78692368,11.3029919 4,11.3 C4.21767083,11.3199162 4.43293271,11.2420516 4.58749216,11.0874922 C4.7420516,10.9329327 4.8199162,10.7176708 4.8,10.5 L4.8,9.7 L4,9.7 C3.6,9.8 3.2,10.1 3.2,10.5 Z" id="Path_18574"></path>
                <path d="M4,0.8 C3.14794325,0.78886767 2.32752662,1.12243357 1.72498009,1.72498009 C1.12243357,2.32752662 0.78886767,3.14794325 0.8,4 C0.797008056,4.21307632 0.880332414,4.41830246 1.03101498,4.56898502 C1.18169754,4.71966759 1.38692368,4.80299194 1.6,4.8 C2.1,4.8 2.2,4.4 2.2,4 C2.2,3.00588745 3.00588745,2.2 4,2.2 C4.99411255,2.2 5.8,3.00588745 5.8,4 C5.80982221,4.24870721 5.7397321,4.49402259 5.6,4.7 C5.4,4.9 4.9,5.2 4.5,5.5 L3.9,6 C3.45606074,6.37167692 3.19970381,6.9210132 3.2,7.5 L3.2,8.3 C3.19700806,8.51307632 3.28033241,8.71830246 3.43101498,8.86898502 C3.58169754,9.01966759 3.78692368,9.10299194 4,9.1 L4.8,9.1 L4.8,7.5 C4.79481166,7.39103629 4.83047111,7.28405796 4.9,7.2 L5.5,6.8 C5.84795144,6.5521377 6.18180354,6.28505602 6.5,6 C7.06745049,5.53188577 7.39726487,4.83561097 7.4,4.1 C7.30469527,2.27982631 5.82220721,0.840940833 4,0.8 Z" id="Path_18575"></path>
            </g>
        </g>
    </g>
</svg>