<?xml version="1.0" encoding="UTF-8"?>
<svg width="24px" height="28px" viewBox="0 0 24 28" version="1.1" xmlns="http://www.w3.org/2000/svg" xmlns:xlink="http://www.w3.org/1999/xlink">
    <!-- Generator: Sketch 52.2 (67145) - http://www.bohemiancoding.com/sketch -->
    <title>ic-nav-send</title>
    <desc>Created with Sketch.</desc>
    <g id="Page-1" stroke="none" stroke-width="1" fill="none" fill-rule="evenodd">
        <g id="ic-nav-send" transform="translate(-1.000000, 0.000000)" fill="#FFFFFF">
            <g id="Group_8274">
                <path d="M13.7,5.3 C13.5175003,5.10851414 13.264524,5.00014991 13,5.00014991 C12.735476,5.00014991 12.4824997,5.10851414 12.3,5.3 L4.3,13.3 C4.10851414,13.4824997 4.00014991,13.735476 4.00014991,14 C4.00014991,14.264524 4.10851414,14.5175003 4.3,14.7 L5,15.4 L5.7,14.7 L12,8.4 L12,27 C12,27.5522847 12.4477153,28 13,28 C13.5522847,28 14,27.5522847 14,27 L14,8.4 L20.3,14.7 L21,15.4 L21.7,14.7 C21.8914859,14.5175003 21.9998501,14.264524 21.9998501,14 C21.9998501,13.735476 21.8914859,13.4824997 21.7,13.3 L13.7,5.3 Z" id="Path_18400"></path>
                <path d="M24,0 L1,0 L1,1 C0.9837782,1.26986337 1.08391473,1.53375194 1.2750814,1.7249186 C1.46624806,1.91608527 1.73013663,2.0162218 2,2 L24,2 C24.2698634,2.0162218 24.5337519,1.91608527 24.7249186,1.7249186 C24.9160853,1.53375194 25.0162218,1.26986337 25,1 L25,0 L24,0 Z" id="Path_18401"></path>
            </g>
        </g>
    </g>
</svg>