<?xml version="1.0" encoding="UTF-8"?>
<svg width="28px" height="28px" viewBox="0 0 28 28" version="1.1" xmlns="http://www.w3.org/2000/svg" xmlns:xlink="http://www.w3.org/1999/xlink">
    <!-- Generator: Sketch 52.2 (67145) - http://www.bohemiancoding.com/sketch -->
    <title>ic-nav-settings</title>
    <desc>Created with Sketch.</desc>
    <g id="Page-1" stroke="none" stroke-width="1" fill="none" fill-rule="evenodd">
        <g id="ic-nav-settings" fill="#FFFFFF" fill-rule="nonzero">
            <path d="M14,9 C11.2385763,9 9,11.2385763 9,14 C9,16.7614237 11.2385763,19 14,19 C16.7614237,19 19,16.7614237 19,14 C19.0132304,12.6699057 18.4906958,11.3904346 17.5501306,10.4498694 C16.6095654,9.50930422 15.3300943,8.98676962 14,9 Z M14,17 C12.3431458,17 11,15.6568542 11,14 C11,12.3431458 12.3431458,11 14,11 C15.6568542,11 17,12.3431458 17,14 C17.0148052,14.8000963 16.7034912,15.5717904 16.1376408,16.1376408 C15.5717904,16.7034912 14.8000963,17.0148052 14,17 Z" id="Path_18402"></path>
            <path d="M26.6,16.1 L24.9,15.1 C25.0000519,14.3700793 25.0000519,13.6299207 24.9,12.9 L26.6,11.9 C27.0664876,11.6494383 27.4072509,11.2155735 27.5401405,10.7029994 C27.6730301,10.1904252 27.5859888,9.6456482 27.3,9.2 L24.8,4.9 C24.5367359,4.44700749 24.1032256,4.11812965 23.596056,3.98664124 C23.0888864,3.85515283 22.5501937,3.93197803 22.1,4.2 L20.4,5.2 C19.7889072,4.79619525 19.1544661,4.42888725 18.5,4.1 L18.5,2 C18.4967052,0.896798134 17.6032019,0.00329480111 16.5,0 L11.5,0 C10.3967981,0.00329480111 9.5032948,0.896798134 9.5,2 L9.5,4 C8.86844664,4.27306884 8.26550174,4.60803823 7.7,5 L7.6,5.1 L5.9,4.1 C4.92365759,3.59411576 3.72341543,3.8941763 3.1,4.8 L0.6,9.1 C0.325539029,9.54860989 0.245074827,10.0894628 0.377057938,10.5985405 C0.509041049,11.1076182 0.842149102,11.5412487 1.3,11.8 L3,12.8 C2.89994808,13.5299207 2.89994808,14.2700793 3,15 L1.3,16 C0.833512353,16.2505617 0.492749114,16.6844265 0.35985952,17.1970006 C0.226969926,17.7095748 0.314011224,18.2543518 0.6,18.7 L3.1,23 C3.36326406,23.4529925 3.79677445,23.7818704 4.30394402,23.9133588 C4.8111136,24.0448472 5.34980626,23.968022 5.8,23.7 L7.5,22.7 C8.11109281,23.1038048 8.7455339,23.4711128 9.4,23.8 L9.4,25.8 C9.4032948,26.9032019 10.2967981,27.7967052 11.4,27.8 L16.4,27.8 C17.5032019,27.7967052 18.3967052,26.9032019 18.4,25.8 L18.4,23.8 C19.0315534,23.5269312 19.6344983,23.1919618 20.2,22.8 L20.3,22.7 L22,23.7 C22.2932862,23.9030984 22.6433491,24.0081173 23,24 C23.7067114,24.0019341 24.3583268,23.6186309 24.7,23 L27.2,18.7 C27.5210856,18.2926147 27.6400286,17.7615655 27.523392,17.2561403 C27.4067555,16.7507151 27.0671334,16.3254886 26.6,16.1 Z M23.1,22.2 L20.8,20.9 C20.4535841,20.6779625 20.0006974,20.719134 19.7,21 C19.5,21.1 19.3,21.3 19.1,21.4 C18.4870483,21.8313998 17.8128908,22.1684785 17.1,22.4 C16.7163167,22.5256503 16.4684144,22.8975037 16.5,23.3 L16.5,25.9 L11.5,25.9 L11.5,23.3 C11.4890582,22.8790336 11.2053202,22.5142276 10.8,22.4 C9.84271533,22.0767487 8.95901374,21.5669209 8.2,20.9 C8.04037541,20.746294 7.81992329,20.6728099 7.6,20.7 C7.42717817,20.684436 7.25354169,20.7191633 7.1,20.8 L4.8,22.1 L2.3,17.8 L4.6,16.5 C4.98536872,16.3301836 5.19536811,15.9101848 5.1,15.5 C4.9,14.51 4.9,13.49 5.1,12.5 C5.19536811,12.0898152 4.98536872,11.6698164 4.6,11.5 L2.3,10.2 L4.8,5.9 L7.1,7.2 C7.49113755,7.37195367 7.94271875,7.33432191 8.3,7.1 C8.5,7 8.7,6.8 8.9,6.7 C9.51295166,6.26860025 10.1871092,5.93152148 10.9,5.7 C11.2836833,5.5743497 11.5315856,5.20249625 11.5,4.8 L11.5,2 L16.5,2 L16.5,4.6 C16.5109418,5.02096641 16.7946798,5.38577241 17.2,5.5 C18.1572847,5.82325127 19.0409863,6.33307911 19.8,7 C20.1020527,7.27782363 20.5527997,7.31880063 20.9,7.1 L23.2,5.8 L25.7,10.1 L23.4,11.4 C23.0146313,11.5698164 22.8046319,11.9898152 22.9,12.4 C23.1,13.39 23.1,14.41 22.9,15.4 C22.8046319,15.8101848 23.0146313,16.2301836 23.4,16.4 L25.7,17.7 L23.1,22.2 Z" id="Path_18403"></path>
        </g>
    </g>
</svg>