<?xml version="1.0" encoding="UTF-8"?>
<svg width="26px" height="28px" viewBox="0 0 26 28" version="1.1" xmlns="http://www.w3.org/2000/svg" xmlns:xlink="http://www.w3.org/1999/xlink">
    <!-- Generator: Sketch 52.2 (67145) - http://www.bohemiancoding.com/sketch -->
    <title>ic-nav-addresses</title>
    <desc>Created with Sketch.</desc>
    <g id="Page-1" stroke="none" stroke-width="1" fill="none" fill-rule="evenodd">
        <g id="ic-nav-addresses" transform="translate(-1.000000, 0.000000)" fill="#FFFFFF">
            <g id="Group_8277">
                <path d="M25,0 L6,0 C4.89679813,0.00329480111 4.0032948,0.896798134 4,2 L4,4 L2,4 C1.73013663,3.9837782 1.46624806,4.08391473 1.2750814,4.2750814 C1.08391473,4.46624806 0.9837782,4.73013663 1,5 L1,6 L4,6 L4,13 L2,13 C1.44771525,13 1,13.4477153 1,14 C1,14.5522847 1.44771525,15 2,15 L4,15 L4,22 L1,22 L1,23 C0.9837782,23.2698634 1.08391473,23.5337519 1.2750814,23.7249186 C1.46624806,23.9160853 1.73013663,24.0162218 2,24 L4,24 L4,26 C4.0032948,27.1032019 4.89679813,27.9967052 6,28 L25,28 C26.1032019,27.9967052 26.9967052,27.1032019 27,26 L27,2 C26.9967052,0.896798134 26.1032019,0.00329480111 25,0 Z M6,26 L6,2 L25,2 L25,26 L6,26 Z" id="Path_18404" fill-rule="nonzero"></path>
                <path d="M15.5,13.5 C17.9852814,13.5 20,11.4852814 20,9 C20,6.51471863 17.9852814,4.5 15.5,4.5 C13.0147186,4.5 11,6.51471863 11,9 C10.9949221,10.1950237 11.4673971,11.342569 12.3124141,12.1875859 C13.157431,13.0326029 14.3049763,13.5050779 15.5,13.5 Z M15.5,6.5 C16.8807119,6.5 18,7.61928813 18,9 C18,10.3807119 16.8807119,11.5 15.5,11.5 C14.1192881,11.5 13,10.3807119 13,9 C12.9935222,8.33499409 13.2548337,7.69533865 13.7250861,7.22508615 C14.1953386,6.75483365 14.8349941,6.49352221 15.5,6.5 Z" id="Path_18405" fill-rule="nonzero"></path>
                <path d="M15.5,14.5 C11.2310385,14.6628249 7.88735579,18.2294198 8,22.5 C7.9837782,22.7698634 8.08391473,23.0337519 8.2750814,23.2249186 C8.46624806,23.4160853 8.73013663,23.5162218 9,23.5 C9.26986337,23.5162218 9.53375194,23.4160853 9.7249186,23.2249186 C9.91608527,23.0337519 10.0162218,22.7698634 10,22.5 C9.88659992,19.3334008 12.335508,16.6618648 15.5,16.5 C18.664492,16.6618648 21.1134001,19.3334008 21,22.5 C21,23.0522847 21.4477153,23.5 22,23.5 C22.5522847,23.5 23,23.0522847 23,22.5 C23.1126442,18.2294198 19.7689615,14.6628249 15.5,14.5 Z" id="Path_18406"></path>
            </g>
        </g>
    </g>
</svg>