<?xml version="1.0" encoding="UTF-8"?>
<svg width="24px" height="28px" viewBox="0 0 24 28" version="1.1" xmlns="http://www.w3.org/2000/svg" xmlns:xlink="http://www.w3.org/1999/xlink">
    <!-- Generator: Sketch 52.2 (67145) - http://www.bohemiancoding.com/sketch -->
    <title>ic-nav-receive</title>
    <desc>Created with Sketch.</desc>
    <g id="Page-1" stroke="none" stroke-width="1" fill="none" fill-rule="evenodd">
        <g id="ic-nav-receive" transform="translate(-1.000000, 0.000000)" fill="#FFFFFF">
            <g id="Group_8272">
                <path d="M24,26 L2,26 C1.73013663,25.9837782 1.46624806,26.0839147 1.2750814,26.2750814 C1.08391473,26.4662481 0.9837782,26.7301366 1,27 L1,28 L25,28 L25,27 C25.0162218,26.7301366 24.9160853,26.4662481 24.7249186,26.2750814 C24.5337519,26.0839147 24.2698634,25.9837782 24,26 Z" id="Path_18398"></path>
                <path d="M12.3,22.7 C12.4824997,22.8914859 12.735476,22.9998501 13,22.9998501 C13.264524,22.9998501 13.5175003,22.8914859 13.7,22.7 L21.7,14.7 C21.8914859,14.5175003 21.9998501,14.264524 21.9998501,14 C21.9998501,13.735476 21.8914859,13.4824997 21.7,13.3 L21,12.6 L20.3,13.3 L14,19.6 L14,1 C14,0.44771525 13.5522847,0 13,0 C12.4477153,0 12,0.44771525 12,1 L12,19.6 L5.7,13.3 L5,12.6 L4.3,13.3 C4.10851414,13.4824997 4.00014991,13.735476 4.00014991,14 C4.00014991,14.264524 4.10851414,14.5175003 4.3,14.7 L12.3,22.7 Z" id="Path_18399"></path>
            </g>
        </g>
    </g>
</svg>