<?xml version="1.0" encoding="UTF-8"?>
<svg width="28px" height="22px" viewBox="0 0 28 22" version="1.1" xmlns="http://www.w3.org/2000/svg" xmlns:xlink="http://www.w3.org/1999/xlink">
    <!-- Generator: Sketch 52.2 (67145) - http://www.bohemiancoding.com/sketch -->
    <title>ic-nav-transactions</title>
    <desc>Created with Sketch.</desc>
    <g id="Page-1" stroke="none" stroke-width="1" fill="none" fill-rule="evenodd">
        <g id="ic-nav-transactions" fill="#FFFFFF">
            <g id="Group_8279">
                <path d="M27.7,10.4 L24.7,7.3 C24.5219047,7.10225055 24.2660222,6.99258663 24,7 C23.7339778,6.99258663 23.4780953,7.10225055 23.3,7.3 L20.3,10.3 C20.1085141,10.4824997 20.0001499,10.735476 20.0001499,11 C20.0001499,11.264524 20.1085141,11.5175003 20.3,11.7 L21,12.4 L21.7,11.7 L23,10.4 L23,11.1 C22.9891635,13.4744448 22.034274,15.7470601 20.345917,17.4166576 C18.6575599,19.0862551 16.3744177,20.0156934 14,20 C11.6352873,20.0184747 9.36339632,19.0808689 7.7,17.4 C7.45077249,17.1456859 7.08417052,17.0448044 6.73991933,17.135805 C6.39566814,17.2268056 6.12680565,17.4956681 6.03580504,17.8399193 C5.94480443,18.1841705 6.04568595,18.5507725 6.3,18.8 C8.33087526,20.8602653 11.1070861,22.0140152 14,22 C20.0336111,21.9937371 24.938637,17.1333023 25,11.1 L25,10.5 L26.3,11.8 L27,12.5 L27.7,11.8 C27.8914859,11.6175003 27.9998501,11.364524 27.9998501,11.1 C27.9998501,10.835476 27.8914859,10.5824997 27.7,10.4 Z" id="Path_18407"></path>
                <path d="M7.7,10.3 L7,9.6 L6.3,10.3 L5,11.6 L5,10.9 C5.01083655,8.52555522 5.96572599,6.25293994 7.65408305,4.58334241 C9.3424401,2.91374488 11.6255823,1.98430659 14,2 C16.3647127,1.98152534 18.6366037,2.91913114 20.3,4.6 C20.6877183,4.9799635 21.3091042,4.9768251 21.6929646,4.59296465 C22.0768251,4.20910419 22.0799635,3.58771825 21.7,3.2 C19.6691247,1.13973471 16.8929139,-0.0140152401 14,0 C11.09563,-0.014088322 8.30470784,1.12658383 6.2416277,3.17090869 C4.17854757,5.21523355 3.01243564,7.99562242 3,10.9 L3,11.5 L1.7,10.2 L1,9.5 L0.3,10.2 C0.108514138,10.3824997 0.000149908192,10.635476 0.000149908192,10.9 C0.000149908192,11.164524 0.108514138,11.4175003 0.3,11.6 L3.3,14.7 C3.47809529,14.8977494 3.73397779,15.0074134 4,15 C4.26602221,15.0074134 4.52190471,14.8977494 4.7,14.7 L7.7,11.7 C7.89148586,11.5175003 7.99985009,11.264524 7.99985009,11 C7.99985009,10.735476 7.89148586,10.4824997 7.7,10.3 Z" id="Path_18408"></path>
            </g>
        </g>
    </g>
</svg>