<?xml version="1.0" encoding="UTF-8"?>
<svg width="24px" height="24px" viewBox="0 0 24 24" version="1.1" xmlns="http://www.w3.org/2000/svg" xmlns:xlink="http://www.w3.org/1999/xlink">
    <!-- Generator: Sketch 52.2 (67145) - http://www.bohemiancoding.com/sketch -->
    <title>ic-receive</title>
    <desc>Created with Sketch.</desc>
    <g id="Page-1" stroke="none" stroke-width="1" fill="none" fill-rule="evenodd">
        <g id="ic-receive" transform="translate(1.000000, -1.000000)">
            <polygon id="Rectangle_3748" fill="#080B2E" opacity="0" points="0 0 24 0 24 24 0 24"></polygon>
            <g id="Group_8419" transform="translate(1.000000, 1.000000)" fill="#FFFFFF">
                <path d="M19.2,20.2 L0.8,20.2 C0.586923678,20.1970081 0.381697543,20.2803324 0.231014978,20.431015 C0.0803324137,20.5816975 -0.00299194353,20.7869237 -1.35525272e-20,21 L-7.78802814e-05,21.8 L20.0000779,21.8 L20,21 C20.0029919,20.7869237 19.9196676,20.5816975 19.768985,20.431015 C19.6183025,20.2803324 19.4130763,20.1970081 19.2,20.2 Z" id="Path_18557"></path>
                <path d="M9.5,17.6 C9.63686832,17.7251426 9.81458321,17.7962286 10,17.8 C10.2,17.8 10.3,17.7 10.5,17.6 L17.8,11.6 C18.1298061,11.3230382 18.1744556,10.8318947 17.9,10.5 L17.4,9.9 L10.8,15.4 L10.8,1 C10.8,0.71418752 10.6475209,0.450085892 10.4,0.307179649 C10.1524791,0.164273405 9.84752086,0.164273405 9.59999999,0.307179649 C9.35247912,0.450085892 9.19999999,0.71418752 9.2,1 L9.2,15.4 L2.6,9.9 L2.1,10.5 C1.82997306,10.8332532 1.87430489,11.3209033 2.2,11.6 L9.5,17.6 Z" id="Path_18558"></path>
            </g>
        </g>
    </g>
</svg>