<svg xmlns="http://www.w3.org/2000/svg" id="ic_reset_options" viewBox="0 0 30 30">
    <defs>
        <style type="text/css">
            .cls-1{fill:#707070}.cls-2{fill:none}
        </style>
    </defs>
    <g id="Group_8297" data-name="Group 8297">
        <path id="Path_18424" d="M15 10a5 5 0 1 0 5 5 4.951 4.951 0 0 0-5-5zm0 8a3 3 0 1 1 3-3 2.946 2.946 0 0 1-3 3z" class="cls-1" data-name="Path 18424"/>
        <path id="Rectangle_3660" d="M0 0h30v30H0z" class="cls-2" data-name="Rectangle 3660"/>
        <path id="Path_18425" d="M28.4 10.2l-2.5-4.3a1.962 1.962 0 0 0-2.7-.7l-1.7 1a18.576 18.576 0 0 0-1.9-1.1V3a2.006 2.006 0 0 0-2-2h-5a2.006 2.006 0 0 0-2 2v2a8.477 8.477 0 0 0-1.9 1l-.1.1-1.7-1a2.181 2.181 0 0 0-2.8.7l-2.5 4.3a1.939 1.939 0 0 0 .7 2.7l1.7 1A8.1 8.1 0 0 0 4 16l-1.7 1a1.9 1.9 0 0 0-.7 2.7L4.1 24a1.962 1.962 0 0 0 2.7.7l1.7-1a18.576 18.576 0 0 0 1.9 1.1v2a2.006 2.006 0 0 0 2 2h5v-2h-5v-2.6a.961.961 0 0 0-.7-.9 7.644 7.644 0 0 1-2.6-1.5.735.735 0 0 0-.6-.2.9.9 0 0 0-.5.1L5.7 23l-2.5-4.3 2.3-1.3a.876.876 0 0 0 .5-1 7.575 7.575 0 0 1 0-3 .876.876 0 0 0-.5-1l-2.3-1.3 2.5-4.3L8 8.1a1.208 1.208 0 0 0 1.3 0c.2-.1.4-.3.6-.4a7.5 7.5 0 0 1 2-1 .875.875 0 0 0 .6-.9V3h5v2.6a.961.961 0 0 0 .7.9A7.644 7.644 0 0 1 20.8 8a.909.909 0 0 0 1.1.1l2.3-1.3 2.5 4.3-2.3 1.3a.876.876 0 0 0-.5 1 10.479 10.479 0 0 1 .1 2.5h1.9a7.387 7.387 0 0 0 0-2.1l1.7-1a1.881 1.881 0 0 0 .8-2.6z" class="cls-1" data-name="Path 18425"/>
    </g>
    <path id="Path_18426" d="M28 18h-1v1.4a5.009 5.009 0 1 0-3.5 8.6 1 1 0 0 0 0-2 3 3 0 0 1 0-6 2.792 2.792 0 0 1 2 .8l.2.2H24v1a.945.945 0 0 0 1 1h3a.945.945 0 0 0 1-1v-3a.945.945 0 0 0-1-1z" class="cls-1" data-name="Path 18426"/>
</svg>
