<?xml version="1.0" encoding="UTF-8"?>
<svg width="37px" height="20px" viewBox="0 0 37 20" version="1.1" xmlns="http://www.w3.org/2000/svg" xmlns:xlink="http://www.w3.org/1999/xlink">
    <!-- Generator: Sketch 52.2 (67145) - http://www.bohemiancoding.com/sketch -->
    <title>ic-switch-on</title>
    <desc>Created with Sketch.</desc>
    <g id="Page-1" stroke="none" stroke-width="1" fill="none" fill-rule="evenodd">
        <g id="ic-switch-on" fill="#105AEF">
            <path d="M34,10.223 C34.0115325,12.0830269 33.2777385,13.8702127 31.9624756,15.1854756 C30.6472127,16.5007385 28.8600269,17.2345325 27,17.223 L7,17.223 C5.13997313,17.2345325 3.3527873,16.5007385 2.03752441,15.1854756 C0.722261514,13.8702127 -0.0115324729,12.0830269 1.77635684e-15,10.223 C-0.0115324729,8.36297313 0.722261514,6.5757873 2.03752441,5.26052441 C3.3527873,3.94526151 5.13997313,3.21146753 7,3.223 L27,3.223 C28.8600269,3.21146753 30.6472127,3.94526151 31.9624756,5.26052441 C33.2777385,6.5757873 34.0115325,8.36297313 34,10.223 Z" id="switch_path" opacity="0.5"></path>
            <g id="Group" transform="translate(17.000000, 0.000000)">
                <path d="M10,0 C15.5228475,3.38176876e-16 20,4.4771525 20,10 C20,15.5228475 15.5228475,20 10,20 C4.4771525,20 6.76353751e-16,15.5228475 0,10 C-6.76353751e-16,4.4771525 4.4771525,1.01453063e-15 10,0 Z" id="switch_button-2"></path>
            </g>
        </g>
    </g>
</svg>