<?xml version="1.0" encoding="UTF-8"?>
<svg width="24px" height="24px" viewBox="0 0 24 24" version="1.1" xmlns="http://www.w3.org/2000/svg" xmlns:xlink="http://www.w3.org/1999/xlink">
    <!-- Generator: Sketch 52.4 (67378) - http://www.bohemiancoding.com/sketch -->
    <title>ic-settings</title>
    <desc>Created with Sketch.</desc>
    <g id="Page-1" stroke="none" stroke-width="1" fill="none" fill-rule="evenodd">
        <g id="ic-settings" transform="translate(-1.000000, -1.000000)">
            <g id="Group_8429" transform="translate(1.000000, 1.000000)" fill="#FFFFFF" fill-rule="nonzero">
                <g id="Group_8427" transform="translate(7.636364, 7.636364)">
                    <path d="M4.36363636,8.50909091 C2.07416504,8.50909091 0.218181818,6.65310769 0.218181818,4.36363636 C0.218181818,2.07416504 2.07416504,0.218181818 4.36363636,0.218181818 C6.65310769,0.218181818 8.50909091,2.07416504 8.50909091,4.36363636 C8.50909091,6.65310769 6.65310769,8.50909091 4.36363636,8.50909091 Z M4.36363636,1.96363636 C3.39292697,1.96363636 2.51779989,2.54837759 2.14632549,3.44519613 C1.77485109,4.34201467 1.9801849,5.37429745 2.66658009,6.06069264 C3.35297528,6.74708783 4.38525806,6.95242164 5.2820766,6.58094724 C6.17889514,6.20947284 6.76363636,5.33434575 6.76363636,4.36363636 C6.75179219,3.0430901 5.68418263,1.97548054 4.36363636,1.96363636 Z" id="Path_18571"></path>
                </g>
                <g id="Group_8428">
                    <path d="M14.1818182,23.7818182 L9.81818182,23.7818182 C9.09912076,23.7724175 8.5184916,23.1917883 8.50909091,22.4727273 L8.50909091,20.6181818 C7.78233864,20.2835657 7.08841772,19.881822 6.43636364,19.4181818 L4.90909091,20.2909091 C4.24451716,20.6343392 3.42736185,20.3939995 3.05454545,19.7454545 L0.872727273,15.9272727 C0.676826434,15.6379608 0.636021094,15.2707127 0.763636364,14.9454545 C0.879775495,14.590412 1.10985994,14.2836327 1.41818182,14.0727273 L2.94545455,13.2 C2.94545455,12.7636364 2.83636364,12.4363636 2.83636364,12 C2.81843436,11.5969105 2.85513092,11.1932484 2.94545455,10.8 L1.41818182,9.92727273 C1.05395873,9.75440662 0.777533582,9.43849215 0.654545455,9.05454545 C0.520487648,8.73016972 0.561643831,8.35976408 0.763636364,8.07272727 L2.94545455,4.25454545 C3.31827094,3.60600059 4.13542625,3.36566078 4.8,3.70909091 L6.32727273,4.58181818 C6.95316437,4.07877951 7.65210755,3.6741282 8.4,3.38181818 L8.4,1.63636364 C8.40940069,0.91730258 8.99002985,0.336673418 9.70909091,0.327272727 L14.0727273,0.327272727 C14.7917883,0.336673418 15.3724175,0.91730258 15.3818182,1.63636364 L15.3818182,3.49090909 C16.1085705,3.82552517 16.8024914,4.22726887 17.4545455,4.69090909 L18.9818182,3.81818182 C19.6463919,3.47475169 20.4635472,3.7150915 20.8363636,4.36363636 L23.0181818,8.18181818 C23.2140827,8.47113013 23.254888,8.83837819 23.1272727,9.16363636 C23.0111336,9.5186789 22.7810492,9.82545816 22.4727273,10.0363636 L20.9454545,10.9090909 C20.9454545,11.3454545 21.0545455,11.6727273 21.0545455,12.1090909 C21.0724748,12.5121804 21.0357782,12.9158425 20.9454545,13.3090909 L22.4727273,14.1818182 C22.8035575,14.3681611 23.041016,14.6847724 23.1272727,15.0545455 C23.2062195,15.3845445 23.1676418,15.7317431 23.0181818,16.0363636 L20.8363636,19.8545455 C20.6009866,20.2908224 20.1306031,20.5473951 19.6363636,20.5090909 C19.404562,20.4864575 19.1808395,20.4118834 18.9818182,20.2909091 L17.4545455,19.4181818 C16.8286538,19.9212205 16.1297107,20.3258719 15.3818182,20.6181818 L15.3818182,22.4727273 C15.4223893,22.8115847 15.3130556,23.151274 15.0824459,23.4028481 C14.8518362,23.6544224 14.5229182,23.7928259 14.1818182,23.7818182 Z M10.0363636,22.0363636 L13.8545455,22.0363636 L13.8545455,19.9636364 C13.8584472,19.619962 14.076168,19.3151528 14.4,19.2 C15.3423255,18.8898577 16.2007792,18.3673207 16.9090909,17.6727273 C17.1961277,17.4707348 17.5665334,17.4295786 17.8909091,17.5636364 L19.7454545,18.6545455 L21.7090909,15.3818182 L19.8545455,14.2909091 C19.5661296,14.0966347 19.4005519,13.7654793 19.4181818,13.4181818 C19.5966016,12.9678687 19.6711787,12.4831184 19.6363636,12 C19.6506476,11.488553 19.6141046,10.9769517 19.5272727,10.4727273 C19.4586131,10.1166093 19.6375462,9.75874308 19.9636364,9.6 L21.8181818,8.50909091 L19.8545455,5.23636364 L18,6.32727273 C17.6843457,6.51076693 17.285858,6.46649052 17.0181818,6.21818182 C16.2753771,5.56926142 15.4266891,5.05266871 14.5090909,4.69090909 C14.1800207,4.65643766 13.9382021,4.36625545 13.9636364,4.03636364 L13.9636364,1.96363636 L10.1454545,1.96363636 L10.1454545,4.03636364 C10.1415529,4.380038 9.92383196,4.68484726 9.6,4.8 C8.64248163,5.09590145 7.75276112,5.5778334 6.98181818,6.21818182 C6.71690284,6.47245475 6.31427,6.51719173 6,6.32727273 L4.14545455,5.23636364 L2.18181818,8.50909091 L4.03636364,9.6 C4.32477955,9.79427449 4.49035723,10.1254299 4.47272727,10.4727273 C4.38589535,10.9769517 4.34935239,11.488553 4.36363636,12 C4.34935239,12.511447 4.38589535,13.0230483 4.47272727,13.5272727 C4.54138692,13.8833907 4.36245382,14.2412569 4.03636364,14.4 L2.18181818,15.4909091 L4.14545455,18.7636364 L6,17.6727273 C6.31565429,17.4892331 6.71414199,17.5335095 6.98181818,17.7818182 C7.72462286,18.4307386 8.57331088,18.9473313 9.49090909,19.3090909 C9.81474105,19.4242437 10.0324619,19.7290529 10.0363636,20.0727273 L10.0363636,22.0363636 Z" id="Path_18572"></path>
                </g>
            </g>
            <polygon id="Rectangle_3749" points="0 0 24 0 24 24 0 24"></polygon>
            <polygon id="Rectangle_3750" points="0 0 24 0 24 24 0 24"></polygon>
        </g>
    </g>
</svg>