<?xml version="1.0" encoding="UTF-8"?>
<svg width="24px" height="24px" viewBox="0 0 24 24" version="1.1" xmlns="http://www.w3.org/2000/svg" xmlns:xlink="http://www.w3.org/1999/xlink">
    <!-- Generator: Sketch 52.2 (67145) - http://www.bohemiancoding.com/sketch -->
    <title>ic-send</title>
    <desc>Created with Sketch.</desc>
    <g id="Page-1" stroke="none" stroke-width="1" fill="none" fill-rule="evenodd">
        <g id="ic-send" transform="translate(1.000000, -1.000000)">
            <polygon id="Rectangle_3748" fill-opacity="0" fill="#080B2E" points="0 0 24 0 24 24 0 24"></polygon>
            <g id="Group_8424" transform="translate(1.000000, 1.000000)" fill="#FFFFFF">
                <path d="M0.8,1.8 L19.3,1.8 C19.7087605,1.76154492 20.0161455,1.41024776 20,1 L20,0.2 L-7.78802814e-05,0.2 L0,1 C-0.00299194353,1.21307632 0.0803324137,1.41830246 0.231014978,1.56898502 C0.381697543,1.71966759 0.586923678,1.80299194 0.8,1.8 Z" id="Path_18566"></path>
                <path d="M10.5,4.4 C10.3631317,4.27485739 10.1854168,4.20377144 10,4.2 C9.8,4.2 9.7,4.3 9.5,4.4 L2.2,10.4 C1.87019385,10.6769618 1.82554444,11.1681053 2.1,11.5 L2.6,12.1 L9.2,6.6 L9.2,21 C9.19700806,21.2130763 9.28033241,21.4183025 9.43101498,21.568985 C9.58169754,21.7196676 9.78692368,21.8029919 10,21.8 C10.2176708,21.8199162 10.4329327,21.7420516 10.5874922,21.5874922 C10.7420516,21.4329327 10.8199162,21.2176708 10.8,21 L10.8,6.6 L17.4,12.1 L17.9,11.5 C18.1700269,11.1667468 18.1256951,10.6790967 17.8,10.4 L10.5,4.4 Z" id="Path_18567"></path>
            </g>
        </g>
    </g>
</svg>