<?xml version="1.0" encoding="UTF-8"?>
<svg width="35px" height="20px" viewBox="0 0 35 20" version="1.1" xmlns="http://www.w3.org/2000/svg" xmlns:xlink="http://www.w3.org/1999/xlink">
    <!-- Generator: Sketch 52.2 (67145) - http://www.bohemiancoding.com/sketch -->
    <title>ic-switch-off</title>
    <desc>Created with Sketch.</desc>
    <g id="Page-1" stroke="none" stroke-width="1" fill="none" fill-rule="evenodd">
        <g id="ic-switch-off" transform="translate(-1.000000, 0.000000)" fill="#BABABA">
            <path d="M35.361,10.223 C35.3725325,12.0830269 34.6387385,13.8702127 33.3234756,15.1854756 C32.0082127,16.5007385 30.2210269,17.2345325 28.361,17.223 L8.361,17.223 C6.50097313,17.2345325 4.7137873,16.5007385 3.39852441,15.1854756 C2.08326151,13.8702127 1.34946753,12.0830269 1.361,10.223 C1.34946753,8.36297313 2.08326151,6.5757873 3.39852441,5.26052441 C4.7137873,3.94526151 6.50097313,3.21146753 8.361,3.223 L28.361,3.223 C30.2210269,3.21146753 32.0082127,3.94526151 33.3234756,5.26052441 C34.6387385,6.5757873 35.3725325,8.36297313 35.361,10.223 Z" id="switch_path" opacity="0.5"></path>
            <g id="Group" transform="translate(0.996000, 0.000000)">
                <path d="M10,0 C15.5228475,3.38176876e-16 20,4.4771525 20,10 C20,15.5228475 15.5228475,20 10,20 C4.4771525,20 6.76353751e-16,15.5228475 0,10 C-6.76353751e-16,4.4771525 4.4771525,1.01453063e-15 10,0 Z" id="switch_button-2"></path>
            </g>
        </g>
    </g>
</svg>