<?xml version="1.0" encoding="UTF-8"?>
<svg width="24px" height="24px" viewBox="0 0 24 24" version="1.1" xmlns="http://www.w3.org/2000/svg" xmlns:xlink="http://www.w3.org/1999/xlink">
    <!-- Generator: Sketch 52.2 (67145) - http://www.bohemiancoding.com/sketch -->
    <title>ic-transactions</title>
    <desc>Created with Sketch.</desc>
    <g id="Page-1" stroke="none" stroke-width="1" fill="none" fill-rule="evenodd">
        <g id="ic-transactions" transform="translate(1.000000, -3.000000)">
            <polygon id="Rectangle_3748" fill-opacity="0" fill="#080B2E" points="0 0 24 0 24 24 0 24"></polygon>
            <g id="Group_8422" transform="translate(1.000000, 3.000000)" fill="#FFFFFF">
                <path d="M16.8,2.7 C15.2736866,1.14425223 13.1793308,0.277622267 11,0.3 C6.4796835,0.320259733 2.82025973,3.9796835 2.8,8.5 L2.8,9.2 L1.5,8 L1,7.4 L0.5,8 C0.200148795,8.30536389 0.200148795,8.79463611 0.5,9.1 L3,11.5 C3.1,11.6 3.2,11.6 3.2,11.7 C3.3,11.7 3.4,11.8 3.5,11.8 C3.60996895,11.8136685 3.72022591,11.7769161 3.8,11.7 C3.90730678,11.6927416 3.99274158,11.6073068 4,11.5 L6.5,9 C6.79985121,8.69463611 6.79985121,8.20536389 6.5,7.9 L6,7.4 L5.5,8 L4.3,9.2 L4.3,8.5 C4.30385839,4.74606306 7.34606306,1.70385839 11.1,1.7 C12.9032235,1.69721015 14.6322555,2.41764015 15.9,3.7 C16.2053639,3.99985121 16.6946361,3.99985121 17,3.7 C17.3,3.4 17.1,3 16.8,2.7 Z" id="Path_18564"></path>
                <path d="M5.2,15.3 C6.7263134,16.8557478 8.82066915,17.7223777 11,17.7 C15.5203165,17.6797403 19.1797403,14.0203165 19.2,9.5 L19.2,8.8 L20.4,10 L20.9,10.5 L21.4,10 C21.6998512,9.69463611 21.6998512,9.20536389 21.4,8.9 L19,6.5 C18.9,6.4 18.8,6.4 18.8,6.3 C18.7,6.3 18.6,6.2 18.5,6.2 C18.390031,6.18633155 18.2797741,6.22308387 18.2,6.3 C18.0926932,6.30725842 18.0072584,6.39269322 18,6.5 L15.5,9 C15.2001488,9.30536389 15.2001488,9.79463611 15.5,10.1 L16,10.6 L16.5,10.1 L17.7,8.9 L17.7,9.6 C17.6961416,13.3539369 14.6539369,16.3961416 10.9,16.4 C9.09677649,16.4027899 7.36774447,15.6823598 6.1,14.4 C5.79463611,14.1001488 5.30536389,14.1001488 5,14.4 C4.7,14.7 4.9,15 5.2,15.3 Z" id="Path_18565"></path>
            </g>
        </g>
    </g>
</svg>