<svg id="Capa_1" data-name="Capa 1" xmlns="http://www.w3.org/2000/svg" viewBox="0 0 18 18"><defs><style type="text/css">.cls-1{opacity:0.6;}.cls-2{fill:none;}</style></defs><title>NewIconsTransactions</title><g class="cls-1"><path d="M16,15.34l.48-.48L16,14.39h0a.65.65,0,0,0-.78-.12l-2.37-2.38.33-.33-.48-.48h0a.67.67,0,0,0-.78-.11L8.32,7.36A30.62,30.62,0,0,1,14,3.06l.58-.34-.34-.58h0l-.07-.08A.73.73,0,0,0,14.06,2l-.12-.07-.11-.06h-.14l-.1,0A12.62,12.62,0,0,0,6,5l-.42-.41a.67.67,0,0,0-.95.95L5,6A12.62,12.62,0,0,0,1.8,13.59a.68.68,0,0,0,.42.66l.5.3L3.07,14A31.22,31.22,0,0,1,7.36,8.32L11,11.92a.67.67,0,0,0,.11.78h0l.48.48.33-.33,2.38,2.37a.67.67,0,0,0,.11.78h0l.48.48.48-.48h0l.33-.33h0l.33-.33ZM10.28,3.92A32.82,32.82,0,0,0,7.36,6.41L6.93,6A11.19,11.19,0,0,1,10.28,3.92ZM6.41,7.36a31.58,31.58,0,0,0-2.49,2.93A11.11,11.11,0,0,1,6,6.93Z"/><rect class="cls-2" width="18" height="18"/></g></svg>