<svg id="Capa_1" data-name="Capa 1" xmlns="http://www.w3.org/2000/svg" viewBox="0 0 18 18"><defs><style type="text/css">.cls-1{opacity:0.6;}.cls-2{fill:none;}</style></defs><title>NewIconsTransactions</title><g class="cls-1"><path d="M4.72,9.06h0l.51-.45-.45-.5a.67.67,0,0,0-1-.07l-.67.59A5.85,5.85,0,0,1,13.88,5.77a.66.66,0,0,0,.93.19A.68.68,0,0,0,15,5,7.2,7.2,0,0,0,1.8,9v1.13a.66.66,0,0,0,.4.61.67.67,0,0,0,.28.06.7.7,0,0,0,.44-.17Z"/><path d="M6.08,9A2.92,2.92,0,1,0,9,6.08,2.93,2.93,0,0,0,6.08,9Zm4.49,0A1.57,1.57,0,1,1,9,7.43,1.57,1.57,0,0,1,10.57,9Z"/><path d="M15.8,7.26a.66.66,0,0,0-.72.11l-1.8,1.57a.67.67,0,0,0-.06,1l.44.51,1.18-1A5.85,5.85,0,0,1,4.12,12.23.68.68,0,0,0,3,13,7.2,7.2,0,0,0,16.2,9V7.88A.67.67,0,0,0,15.8,7.26Z"/><rect class="cls-2" width="18" height="18"/></g></svg>