<?xml version="1.0" encoding="UTF-8"?>
<svg width="174px" height="188px" viewBox="0 0 174 188" version="1.1" xmlns="http://www.w3.org/2000/svg" xmlns:xlink="http://www.w3.org/1999/xlink">
    <!-- Generator: Sketch 52.4 (67378) - http://www.bohemiancoding.com/sketch -->
    <title>img-emptyic-addresses</title>
    <desc>Created with Sketch.</desc>
    <g id="Page-1" stroke="none" stroke-width="1" fill="none" fill-rule="evenodd" opacity="0.998">
        <g id="img-emptyic-addresses" transform="translate(-13.000000, -6.000000)">
            <g id="ic_addresses">
                <polygon id="Rectangle_3649" points="0 0 200 0 200 200 0 200"></polygon>
                <g id="Group_8277" transform="translate(12.333000, 6.667000)" fill="#BABABA">
                    <path d="M161,0 L34.333,0 C26.978505,0.0219653376 21.0219653,5.97850499 21,13.333 L21,26.667 L7.667,26.667 C5.86797775,26.5587742 4.10874528,27.2262191 2.83424908,28.5005242 C1.55975288,29.7748292 0.892044033,31.5339615 1,33.333 L1,40 L21,40 L21,86.667 L7.667,86.667 C5.26583205,86.6375909 3.03436912,87.9017474 1.82521524,89.9764569 C0.616061362,92.0511663 0.616061362,94.6158337 1.82521524,96.6905431 C3.03436912,98.7652526 5.26583205,100.029409 7.667,100 L21,100 L21,146.667 L1,146.667 L1,153.334 C0.892044033,155.133038 1.55975288,156.892171 2.83424908,158.166476 C4.10874528,159.440781 5.86797775,160.108226 7.667,160 L21,160 L21,173.333 C21.0219653,180.687495 26.978505,186.644035 34.333,186.666 L161,186.666 C168.354495,186.644035 174.311035,180.687495 174.333,173.333 L174.333,13.333 C174.311035,5.97850499 168.354495,0.0219653376 161,0 Z M34.333,173.333 L34.333,13.333 L161,13.333 L161,173.333 L34.333,173.333 Z" id="Path_18404" fill-rule="nonzero"></path>
                    <path d="M97.667,90 C114.235542,90 127.667,76.5685425 127.667,60 C127.667,43.4314575 114.235542,30 97.667,30 C81.0984575,30 67.667,43.4314575 67.667,60 C67.6335963,67.9666881 70.7835736,75.616729 76.4169223,81.2500777 C82.050271,86.8834264 89.7003119,90.0334037 97.667,90 Z M97.667,43.333 C106.87193,43.333 114.334,50.7950701 114.334,60 C114.334,69.2049299 106.87193,76.667 97.667,76.667 C88.4620701,76.667 81,69.2049299 81,60 C80.9548904,55.5659618 82.6963835,51.3003851 85.8318843,48.1648843 C88.9673851,45.0293835 93.2329618,43.2878904 97.667,43.333 Z" id="Path_18405" fill-rule="nonzero"></path>
                    <path d="M97.667,96.667 C70.334,96.667 47.667,120.667 47.667,150 C47.5587458,151.799207 48.2263226,153.558613 49.5008546,154.833145 C50.7753867,156.107677 52.5347933,156.775254 54.334,156.667 C56.1332067,156.775254 57.8926133,156.107677 59.1671454,154.833145 C60.4416774,153.558613 61.1092542,151.799207 61.001,150 C61.001,128 77.668,110 97.668,110 C117.668,110 134.335,128 134.335,150 C134.379704,153.649962 137.351264,156.58535 141.0015,156.58535 C144.651736,156.58535 147.623296,153.649962 147.668,150 C147.667,120.667 125,96.667 97.667,96.667 Z" id="Path_18406"></path>
                </g>
            </g>
        </g>
    </g>
</svg>