<svg xmlns="http://www.w3.org/2000/svg" xmlns:xlink="http://www.w3.org/1999/xlink" id="simbol" viewBox="0 0 106.07 91.856">
    <defs>
        <style type="text/css">
            .cls-1{fill:url(#linear-gradient)}.cls-2{fill:url(#linear-gradient-2)}.cls-3{fill:url(#linear-gradient-3)}.cls-4{fill:url(#linear-gradient-4)}
        </style>
        <linearGradient id="linear-gradient" x1=".5" x2=".5" y2="1" gradientUnits="objectBoundingBox">
            <stop offset="0" stop-color="#0090ff"/>
            <stop offset="1" stop-color="#0a3979"/>
        </linearGradient>
        <linearGradient id="linear-gradient-2" x2="1" y1=".5" y2=".5" gradientUnits="objectBoundingBox">
            <stop offset="0" stop-color="#0090ff"/>
            <stop offset=".964" stop-color="#084a93"/>
        </linearGradient>
        <linearGradient id="linear-gradient-3" x1=".5" x2=".5" y2="1" xlink:href="#linear-gradient-2"/>
        <linearGradient id="linear-gradient-4" x1=".5" x2=".5" y1="1" gradientUnits="objectBoundingBox">
            <stop offset="0" stop-color="#13d5d2"/>
            <stop offset=".43" stop-color="#12e0e4"/>
            <stop offset="1" stop-color="#76bdff"/>
        </linearGradient>
    </defs>
    <path id="Path_18312" d="M89.554 28.621Q97.8 14.311 106.07 0a37.807 37.807 0 0 0-11.86 3.6c-3.18 6.22-3.286 12.492-7.081 18.079-13.459 19.713-36 25.863-55.785 12.914C19.995 27.163 13.177 7.942 11.877 3.6A37.91 37.91 0 0 0 0 0q8.249 14.311 16.516 28.621c20.1 7.063 33.506 31.485 36.423 50.2 2.547-21.596 17.78-41.836 36.615-50.2z" class="cls-1" data-name="Path 18312"/>
    <path id="Path_18313" d="M330.244 162.9a51.841 51.841 0 0 0-36.528 63.234q18.264-31.626 36.528-63.234z" class="cls-2" data-name="Path 18313" transform="translate(-240.689 -134.279)"/>
    <path id="Path_18314" d="M94 162.9q18.264 31.626 36.51 63.234A51.816 51.816 0 0 0 94 162.9z" class="cls-3" data-name="Path 18314" transform="translate(-77.484 -134.279)"/>
    <path id="Path_18315" d="M143.854 38.808a41.147 41.147 0 0 0 6.079-18.308 37.64 37.64 0 0 0-18.993 21.8c-7.116 21.312-37.248 21.312-44.364 0A37.724 37.724 0 0 0 67.6 20.5a41.3 41.3 0 0 0 76.254 18.308z" class="cls-4" data-name="Path 18315" transform="translate(-55.723 -16.898)"/>
</svg>
